<svg width="33" height="32" viewBox="0 0 33 32" fill="none" xmlns="http://www.w3.org/2000/svg">
<rect x="0.5" width="32" height="32" rx="10" fill="url(#paint0_linear_10_5)"/>
<path d="M16.5 10.1667C16.501 9.83336 16.4353 9.50322 16.3068 9.19567C16.1783 8.88811 15.9897 8.60936 15.7519 8.37579C15.5141 8.14222 15.232 7.95856 14.9222 7.83561C14.6124 7.71266 14.2811 7.6529 13.9479 7.65984C13.6147 7.66679 13.2862 7.7403 12.9818 7.87606C12.6774 8.01181 12.4032 8.20707 12.1753 8.45034C11.9475 8.69361 11.7706 8.97999 11.655 9.29263C11.5395 9.60527 11.4876 9.93786 11.5025 10.2708C11.0127 10.3968 10.5579 10.6325 10.1727 10.9603C9.78746 11.288 9.48186 11.6991 9.27903 12.1624C9.0762 12.6257 8.98146 13.1291 9.00198 13.6344C9.02251 14.1398 9.15776 14.6338 9.39749 15.0792C8.97597 15.4216 8.64451 15.8619 8.43194 16.3616C8.21937 16.8614 8.13212 17.4055 8.17779 17.9467C8.22347 18.4878 8.40067 19.0096 8.694 19.4667C8.98732 19.9237 9.38788 20.3022 9.86082 20.5692C9.80242 21.021 9.83727 21.4801 9.96323 21.9179C10.0892 22.3558 10.3036 22.7632 10.5931 23.115C10.8827 23.4667 11.2413 23.7554 11.6468 23.9631C12.0523 24.1709 12.4961 24.2933 12.9508 24.3228C13.4055 24.3523 13.8614 24.2883 14.2903 24.1347C14.7193 23.9811 15.1122 23.7412 15.4448 23.4298C15.7774 23.1184 16.0426 22.7421 16.2241 22.3242C16.4056 21.9063 16.4995 21.4556 16.5 21V10.1667Z" stroke="white" stroke-width="1.66667" stroke-linecap="round" stroke-linejoin="round"/>
<path d="M16.5 10.1667C16.499 9.83336 16.5647 9.50322 16.6932 9.19567C16.8217 8.88811 17.0103 8.60936 17.2481 8.37579C17.4859 8.14222 17.768 7.95856 18.0778 7.83561C18.3876 7.71266 18.7189 7.6529 19.0521 7.65984C19.3853 7.66679 19.7138 7.7403 20.0182 7.87606C20.3226 8.01181 20.5968 8.20707 20.8247 8.45034C21.0525 8.69361 21.2294 8.97999 21.345 9.29263C21.4605 9.60527 21.5124 9.93786 21.4975 10.2708C21.9873 10.3968 22.4421 10.6325 22.8273 10.9603C23.2125 11.288 23.5181 11.6991 23.721 12.1624C23.9238 12.6257 24.0185 13.1291 23.998 13.6344C23.9775 14.1398 23.8422 14.6338 23.6025 15.0792C24.024 15.4216 24.3555 15.8619 24.5681 16.3616C24.7806 16.8614 24.8679 17.4055 24.8222 17.9467C24.7765 18.4878 24.5993 19.0096 24.306 19.4667C24.0127 19.9237 23.6121 20.3022 23.1392 20.5692C23.1976 21.021 23.1627 21.4801 23.0368 21.9179C22.9108 22.3558 22.6964 22.7632 22.4069 23.115C22.1173 23.4667 21.7587 23.7554 21.3532 23.9631C20.9477 24.1709 20.5039 24.2933 20.0492 24.3228C19.5945 24.3523 19.1386 24.2883 18.7097 24.1347C18.2807 23.9811 17.8878 23.7412 17.5552 23.4298C17.2226 23.1184 16.9574 22.7421 16.7759 22.3242C16.5944 21.9063 16.5005 21.4556 16.5 21V10.1667Z" stroke="white" stroke-width="1.66667" stroke-linecap="round" stroke-linejoin="round"/>
<path d="M19 16.8333C18.3004 16.5872 17.6894 16.1392 17.2444 15.5458C16.7994 14.9525 16.5404 14.2406 16.5 13.5C16.4596 14.2406 16.2006 14.9525 15.7556 15.5458C15.3106 16.1392 14.6996 16.5872 14 16.8333" stroke="white" stroke-width="1.66667" stroke-linecap="round" stroke-linejoin="round"/>
<path d="M21.1658 11.4167C21.3675 11.0671 21.4816 10.674 21.4983 10.2708" stroke="white" stroke-width="1.66667" stroke-linecap="round" stroke-linejoin="round"/>
<path d="M11.5025 10.2708C11.519 10.6739 11.6328 11.0671 11.8342 11.4167" stroke="white" stroke-width="1.66667" stroke-linecap="round" stroke-linejoin="round"/>
<path d="M9.39749 15.08C9.54994 14.9558 9.71308 14.8454 9.88499 14.75" stroke="white" stroke-width="1.66667" stroke-linecap="round" stroke-linejoin="round"/>
<path d="M23.115 14.75C23.2869 14.8454 23.45 14.9558 23.6025 15.08" stroke="white" stroke-width="1.66667" stroke-linecap="round" stroke-linejoin="round"/>
<path d="M11.5 21C10.9257 21.0003 10.3611 20.8522 9.86084 20.57" stroke="white" stroke-width="1.66667" stroke-linecap="round" stroke-linejoin="round"/>
<path d="M23.1392 20.57C22.6389 20.8522 22.0743 21.0003 21.5 21" stroke="white" stroke-width="1.66667" stroke-linecap="round" stroke-linejoin="round"/>
<defs>
<linearGradient id="paint0_linear_10_5" x1="0.5" y1="0" x2="32.5" y2="32" gradientUnits="userSpaceOnUse">
<stop stop-color="#155DFC"/>
<stop offset="1" stop-color="#1447E6"/>
</linearGradient>
</defs>
</svg>
